<svg id="Layer_1" data-name="Layer 1" xmlns="http://www.w3.org/2000/svg" xmlns:xlink="http://www.w3.org/1999/xlink" viewBox="0 0 162.5 122"><defs><style>.cls-1{fill:#72bf44;}.cls-2{fill:#77787b;}.cls-3,.cls-4{fill:#357729;}.cls-4,.cls-5,.cls-6{fill-rule:evenodd;}.cls-5{fill:url(#linear-gradient);}.cls-6{fill:url(#linear-gradient-2);}</style><linearGradient id="linear-gradient" x1="65.98" y1="47.29" x2="132.41" y2="47.29" gradientUnits="userSpaceOnUse"><stop offset="0.12" stop-color="#458e34"/><stop offset="0.49" stop-color="#55a03a"/><stop offset="1" stop-color="#72bf44"/></linearGradient><linearGradient id="linear-gradient-2" x1="26.17" y1="37.21" x2="92.47" y2="37.21" gradientUnits="userSpaceOnUse"><stop offset="0.1" stop-color="#72bf44"/><stop offset="0.29" stop-color="#62ad3e"/><stop offset="0.59" stop-color="#4d9637"/><stop offset="0.77" stop-color="#458e34"/></linearGradient></defs><title>Silvermill-logo</title><path class="cls-1" d="M17.32,118.29,19,114.05l1.62,4.24,1.61-4.12H23l-2.39,6L19,115.93l-1.63,4.22-2.39-6h.78Z"/><path class="cls-1" d="M27.87,116.49v-2.32h.72v5.75h-.72v-2.76H25.13v2.76h-.72v-5.75h.72v2.32Z"/><path class="cls-1" d="M30.69,114.17h3.09v.66H31.41v1.61h2.3v.65h-2.3v2.18h2.37v.65H30.69Z"/><path class="cls-1" d="M39.31,119.92h-.87l-1.69-2.43h-.3v2.43h-.72v-5.75h.87a3,3,0,0,1,1.52.27,1.59,1.59,0,0,1,.76,1.37,1.56,1.56,0,0,1-1.38,1.61Zm-2.86-3h.23c.73,0,1.53-.14,1.53-1.06s-.86-1-1.57-1h-.19Z"/><path class="cls-1" d="M41,114.17H44v.66H41.66v1.61H44v.65H41.66v2.18H44v.65H41Z"/><path class="cls-1" d="M54.5,117v.22a2.67,2.67,0,0,1-2.72,2.8,3,3,0,0,1,.07-6,3,3,0,0,1,2.35,1.11l-.51.48a2.27,2.27,0,0,0-4.1,1.4,2.34,2.34,0,0,0,2.23,2.35,1.94,1.94,0,0,0,1.89-1.71H52.22V117Z"/><path class="cls-1" d="M59.86,119.92H59l-1.7-2.43H57v2.43h-.71v-5.75h.87a3.05,3.05,0,0,1,1.52.27,1.58,1.58,0,0,1,.75,1.37A1.56,1.56,0,0,1,58,117.42Zm-2.87-3h.23c.74,0,1.53-.14,1.53-1.06s-.86-1-1.56-1H57Z"/><path class="cls-1" d="M67.11,117.05a3,3,0,0,1-6,0,3,3,0,0,1,6,0Zm-.72,0a2.3,2.3,0,1,0-4.59,0,2.3,2.3,0,1,0,4.59,0Z"/><path class="cls-1" d="M70.62,118.29l1.62-4.24,1.63,4.24,1.61-4.12h.78l-2.39,6-1.63-4.22-1.62,4.22-2.39-6H69Z"/><path class="cls-1" d="M79.32,119.92h-.71v-5.09H77.24v-.66h3.45v.66H79.32Z"/><path class="cls-1" d="M85.72,116.49v-2.32h.71v5.75h-.71v-2.76H83v2.76h-.72v-5.75H83v2.32Z"/><path class="cls-1" d="M93.36,119.92h-.72v-5.09H91.28v-.66h3.44v.66H93.36Z"/><path class="cls-1" d="M96.56,118.48l-.65,1.44h-.77l2.74-6,2.75,6h-.77l-.66-1.44Zm1.32-3-1,2.33h2Z"/><path class="cls-1" d="M105.33,114.17h.94l-2.58,2.59,2.63,3.16h-1l-2.17-2.67-.29.27v2.4h-.71v-5.75h.71v2.5Z"/><path class="cls-1" d="M107.82,114.17h3.09v.66h-2.37v1.61h2.3v.65h-2.3v2.18h2.37v.65h-3.09Z"/><path class="cls-1" d="M115.42,115.26a1,1,0,0,0-.92-.54.91.91,0,0,0-1,.82c0,.45.45.68.81.82l.41.16c.81.32,1.42.77,1.42,1.73a1.77,1.77,0,0,1-1.83,1.8,1.79,1.79,0,0,1-1.78-1.61l.72-.16a1.09,1.09,0,1,0,2.18,0c0-.61-.5-.88-1-1.09l-.4-.17c-.66-.28-1.25-.65-1.25-1.45a1.57,1.57,0,0,1,1.69-1.49,1.63,1.63,0,0,1,1.48.87Z"/><path class="cls-1" d="M124.88,119.92H124l-1.7-2.43H122v2.43h-.72v-5.75h.87a3.05,3.05,0,0,1,1.52.27,1.58,1.58,0,0,1,.75,1.37,1.56,1.56,0,0,1-1.38,1.61Zm-2.86-3h.23c.73,0,1.52-.14,1.52-1.06s-.85-1-1.56-1H122Z"/><path class="cls-1" d="M132.13,117.05a3,3,0,0,1-6,0,3,3,0,0,1,6,0Zm-.71,0a2.3,2.3,0,1,0-4.6,0,2.3,2.3,0,1,0,4.6,0Z"/><path class="cls-1" d="M139.52,117.05a3,3,0,0,1-6,0,3,3,0,0,1,6,0Zm-.72,0a2.3,2.3,0,1,0-4.59,0,2.3,2.3,0,1,0,4.59,0Z"/><path class="cls-1" d="M142.83,119.92h-.72v-5.09h-1.37v-.66h3.45v.66h-1.36Z"/><path class="cls-2" d="M13.19,98.35a19.26,19.26,0,0,0-2.71-1.58c-1-.45-1.83-.91-2.63-1.38a10.16,10.16,0,0,1-2-1.44,2.09,2.09,0,0,1-.71-1.56,2.24,2.24,0,0,1,.26-1,3.09,3.09,0,0,1,.69-.88,3.28,3.28,0,0,1,1-.57,3.5,3.5,0,0,1,1.13-.2,4.94,4.94,0,0,1,3.64,1.54,5.17,5.17,0,0,1,1,1.69A7,7,0,0,1,13.39,95a.4.4,0,0,0,.4.36h.54a.39.39,0,0,0,.39-.39l.09-5.43a.39.39,0,0,0-.2-.35.4.4,0,0,0-.41,0,1.26,1.26,0,0,1-.75.24,2.43,2.43,0,0,1-.79-.25,5.09,5.09,0,0,1-.74-.46,3.4,3.4,0,0,0-.72-.44,11.79,11.79,0,0,0-1.26-.4A6.72,6.72,0,0,0,6,88.15a6.22,6.22,0,0,0-1.95,1.17,5.34,5.34,0,0,0-1.83,4.06,4.81,4.81,0,0,0,.84,2.81,9,9,0,0,0,2,2A20.73,20.73,0,0,0,7.65,99.8c.88.47,1.71.94,2.48,1.43A8.17,8.17,0,0,1,12,102.75a2.45,2.45,0,0,1,.66,1.73,2.58,2.58,0,0,1-.28,1.24,2.61,2.61,0,0,1-.77.88,3.59,3.59,0,0,1-1.15.54,5.37,5.37,0,0,1-2.88,0,5,5,0,0,1-1.7-.75,5.26,5.26,0,0,1-1.46-1.59A6.48,6.48,0,0,1,3.59,102a.4.4,0,0,0-.39-.36H2.66a.4.4,0,0,0-.4.4v5.1a.4.4,0,0,0,.4.39,6,6,0,0,1,1.33.12,5.54,5.54,0,0,1,.85.29,5.15,5.15,0,0,1,.59.34,2.89,2.89,0,0,0,.67.37c.41.14.88.28,1.39.4a8,8,0,0,0,1.89.19,7.87,7.87,0,0,0,2.76-.47,6.6,6.6,0,0,0,2.17-1.33,5.91,5.91,0,0,0,1.41-2,5.71,5.71,0,0,0,.5-2.36,4.46,4.46,0,0,0-.9-2.79A9.79,9.79,0,0,0,13.19,98.35Z"/><rect class="cls-2" x="18.5" y="88.18" width="3.61" height="20.65" rx="0.39" ry="0.39"/><path class="cls-2" d="M40.87,103.06H40a.4.4,0,0,0-.38.29,12.59,12.59,0,0,1-.61,1.73,3.9,3.9,0,0,1-.73,1.1,2.36,2.36,0,0,1-1,.59,5.24,5.24,0,0,1-1.55.19H33.49a4.12,4.12,0,0,1-1.81-.31,2,2,0,0,1-.86-.75,2.17,2.17,0,0,1-.31-1c0-.39,0-.73,0-1V88.58a.4.4,0,0,0-.4-.4H24.43a.39.39,0,0,0-.39.4v.54a.38.38,0,0,0,.39.39,6.46,6.46,0,0,1,1.52.14,1.07,1.07,0,0,1,.62.38,1.7,1.7,0,0,1,.24.83c0,.41.05.92.05,1.53v16a.38.38,0,0,0,.39.39H39.82a.38.38,0,0,0,.38-.31l1.06-5a.4.4,0,0,0-.39-.48Z"/><path class="cls-2" d="M93.73,107.5a5.51,5.51,0,0,1-1.66-.36,5,5,0,0,1-1.25-.72,7,7,0,0,1-1-1.06c-.33-.43-.68-.89-1-1.41L85.21,99a9.34,9.34,0,0,0,1.37-.5,6.45,6.45,0,0,0,1.67-1.1,5.52,5.52,0,0,0,1.16-1.59,4.72,4.72,0,0,0,.45-2.09,6.13,6.13,0,0,0-.27-1.66,4.71,4.71,0,0,0-1.1-1.85,6.18,6.18,0,0,0-2.24-1.46,9.79,9.79,0,0,0-3.69-.59H74.24a.39.39,0,0,0-.39.4v.54a.38.38,0,0,0,.39.39,4,4,0,0,1,1.23.14,1.07,1.07,0,0,1,.62.38,1.7,1.7,0,0,1,.25.83c0,.41,0,.92,0,1.53v16a.39.39,0,0,0,.4.39h2.81a.39.39,0,0,0,.4-.39v-16A3.49,3.49,0,0,1,80.22,91a1.61,1.61,0,0,1,.5-.65,1.36,1.36,0,0,1,.63-.22,6.38,6.38,0,0,1,.7,0,3.82,3.82,0,0,1,1.5.29,3.37,3.37,0,0,1,1.16.79,3.51,3.51,0,0,1,.74,1.2,4.47,4.47,0,0,1,.26,1.53,4.18,4.18,0,0,1-.39,1.92,3.45,3.45,0,0,1-1,1.21,3.67,3.67,0,0,1-1.46.65,7.48,7.48,0,0,1-1.76.2.41.41,0,0,0-.35.22.43.43,0,0,0,0,.41l7.29,10.2a.42.42,0,0,0,.32.16h5.31a.39.39,0,0,0,.4-.39v-.54A.4.4,0,0,0,93.73,107.5Z"/><path class="cls-2" d="M115.19,88.18H112.4a.41.41,0,0,0-.36.23l-6.75,14.76L98.45,88.41a.39.39,0,0,0-.36-.23H92.45a.4.4,0,0,0-.39.4v.54a.39.39,0,0,0,.39.39,5.15,5.15,0,0,1,1.39.15,1.18,1.18,0,0,1,.65.41,1.89,1.89,0,0,1,.3.83,9.89,9.89,0,0,1,.09,1.46v16.08a.39.39,0,0,0,.39.39h1.29a.39.39,0,0,0,.4-.39v-15l6.92,15.11a.41.41,0,0,0,.36.23h.48a.39.39,0,0,0,.36-.23L112,93.5v14.94a.38.38,0,0,0,.39.39h2.82a.39.39,0,0,0,.4-.39V88.58A.4.4,0,0,0,115.19,88.18Z"/><path class="cls-2" d="M119,88.18h2.82a.4.4,0,0,1,.4.4v19.86a.39.39,0,0,1-.39.39H119a.39.39,0,0,1-.39-.39V88.58A.39.39,0,0,1,119,88.18Z"/><path class="cls-2" d="M141,103.06h-.84a.4.4,0,0,0-.38.29,12.59,12.59,0,0,1-.61,1.73,3.7,3.7,0,0,1-.73,1.1,2.43,2.43,0,0,1-1,.59,5.24,5.24,0,0,1-1.55.19H133.6a4.12,4.12,0,0,1-1.81-.31,2.08,2.08,0,0,1-.86-.75,2.17,2.17,0,0,1-.31-1c0-.39,0-.73,0-1V88.58a.4.4,0,0,0-.4-.4h-5.64a.39.39,0,0,0-.39.4v.54a.38.38,0,0,0,.39.39,6.46,6.46,0,0,1,1.52.14,1,1,0,0,1,.61.38,1.6,1.6,0,0,1,.25.83c0,.41,0,.92,0,1.53v16a.38.38,0,0,0,.39.39h12.57a.4.4,0,0,0,.39-.31l1.05-5a.4.4,0,0,0-.39-.48Z"/><path class="cls-2" d="M157,103.21a.42.42,0,0,0-.31-.15h-.84a.4.4,0,0,0-.38.29,12.59,12.59,0,0,1-.61,1.73,3.7,3.7,0,0,1-.73,1.1,2.36,2.36,0,0,1-1,.59,5.24,5.24,0,0,1-1.55.19H149.3a4.2,4.2,0,0,1-1.82-.31,2.11,2.11,0,0,1-.85-.75,2.17,2.17,0,0,1-.31-1c0-.39,0-.73,0-1V88.58a.4.4,0,0,0-.4-.4h-5.64a.39.39,0,0,0-.39.4v.54a.38.38,0,0,0,.39.39,6.46,6.46,0,0,1,1.52.14,1.07,1.07,0,0,1,.62.38,1.7,1.7,0,0,1,.24.83c0,.41,0,.92,0,1.53v16a.38.38,0,0,0,.39.39h12.57a.4.4,0,0,0,.39-.31l1-5A.42.42,0,0,0,157,103.21Z"/><path class="cls-1" d="M156.81,90.43h-.28v-2H156v-.26h1.35v.26h-.53Z"/><path class="cls-1" d="M158.36,88.94h0l-.26,1.49h-.29l.46-2.34.77,1.77.78-1.77.46,2.34H160l-.26-1.49h0L159,90.48Z"/><path class="cls-2" d="M57,88.18H55.55a.4.4,0,0,0-.37.25l-6,14.91L43,88.43a.39.39,0,0,0-.36-.25H38a.4.4,0,0,0-.4.4v.54a.4.4,0,0,0,.36.39,2.4,2.4,0,0,1,1,.3,3,3,0,0,1,.72.65,4.21,4.21,0,0,1,.57.92c.18.36.35.73.5,1.1l7,16.56a.4.4,0,0,0,.37.24h.54a.39.39,0,0,0,.36-.25l8-19.49.49,0a.86.86,0,0,0,.47-.74c0-.51-.63-.66-.63-.66Z"/><path class="cls-2" d="M59.73,90a1.7,1.7,0,0,1,.25.83c0,.41,0,.92,0,1.53v16a.39.39,0,0,0,.4.39H73a.39.39,0,0,0,.38-.31l1-5a.36.36,0,0,0-.08-.33.4.4,0,0,0-.31-.15h-.84a.38.38,0,0,0-.37.29,12.49,12.49,0,0,1-.62,1.73,3.68,3.68,0,0,1-.72,1.1,2.4,2.4,0,0,1-1,.59,5.24,5.24,0,0,1-1.55.19H66.66a4.14,4.14,0,0,1-1.82-.31,2.08,2.08,0,0,1-.86-.75,2.3,2.3,0,0,1-.31-1c0-.39,0-.73,0-1V99h5.16a3.28,3.28,0,0,1,1,.12.64.64,0,0,1,.4.31,2.06,2.06,0,0,1,.15.92.39.39,0,0,0,.39.39h.54a.39.39,0,0,0,.4-.39V96.2a.4.4,0,0,0-.4-.4H70.7a.4.4,0,0,0-.39.4,1.1,1.1,0,0,1-.13.59.74.74,0,0,1-.42.24,4.65,4.65,0,0,1-1,.09H63.63V90.05h4.68a13.39,13.39,0,0,1,1.7.09,2.33,2.33,0,0,1,1,.35,1.88,1.88,0,0,1,.63.81,8.74,8.74,0,0,1,.47,1.7.39.39,0,0,0,.39.32h.59a.38.38,0,0,0,.29-.12.41.41,0,0,0,.11-.3l-.27-4.35a.4.4,0,0,0-.4-.37H58.75v1.4a2.56,2.56,0,0,1,.36.07A1,1,0,0,1,59.73,90Z"/><path class="cls-3" d="M94.61,58.4s-.84-5.86-11-5.7c0,0-15.17.59-21.87-1.92,0,0-15.92-4.19-17.35-21,0,0-2-13,15.51-21A74.38,74.38,0,0,1,87.31,2.62l0,0c-.15,0-.3,0-.46-.07s-.45-.06-.7-.08C76,1.69,53.47,1.18,39.84,12c0,0-9.05,7-10.81,18.35,0,0-3,12.38,6,25.33,0,0,7.17,11.88,28.16,16.09,0,0,15.19,2.47,23.66-1.21C86.82,70.56,96.54,67.12,94.61,58.4Z"/><path class="cls-4" d="M75.8,81.65s22.29-.58,34.86-10.47a20.69,20.69,0,0,0,8.21-18.61s-1.51-15.5-20.45-19.86a19.6,19.6,0,0,0-5.36-.33s-15-.25-17.1-.84c0,0-10.3-1.26-7-11.23,0,0,3-7,15.17-8,0,0,22.63-4,40.61,12.44,0,0,11.1,9.85,9.93,25.52a29.46,29.46,0,0,1-15.51,25.06S102.61,85.43,75.8,81.65Z"/><path class="cls-5" d="M73.49,81.74s22.3-.59,34.87-10.48a20.69,20.69,0,0,0,8.21-18.6S115.09,37.32,96.15,33a18.7,18.7,0,0,0-3-.46c-.87,0-2-.08-2.65-.16,0,0-14.75-.13-16.85-.72,0,0-10.31-1.26-7-11.23,0,0,3-7,15.17-8,0,0,22.63-4,40.6,12.45,0,0,11.11,9.84,9.93,25.51a29.47,29.47,0,0,1-15.5,25.06S100.31,85.51,73.49,81.74Z"/><path class="cls-6" d="M92.22,58.39s-.84-5.86-11-5.7c0,0-15.17.59-21.88-1.92,0,0-15.92-4.19-17.35-21,0,0-2-13,15.51-21,0,0,14.14-6.69,30-6.16h0c-.65-.11-1.32-.19-2-.27s-1.45-.16-2.31-.22h-.19l-.77,0L82,2h-.2C71,1.42,50.28,1.8,37.45,12c0,0-9.05,7-10.81,18.35,0,0-3,12.38,6,25.33,0,0,7.16,11.88,28.16,16.09,0,0,15.19,2.47,23.65-1.21C84.42,70.55,94.14,67.11,92.22,58.39Z"/></svg>